<?xml version="1.0" encoding="UTF-8" standalone="no"?>
<!-- Created with Inkscape (http://www.inkscape.org/) -->

<svg
   xmlns:dc="http://purl.org/dc/elements/1.1/"
   xmlns:cc="http://creativecommons.org/ns#"
   xmlns:rdf="http://www.w3.org/1999/02/22-rdf-syntax-ns#"
   xmlns:svg="http://www.w3.org/2000/svg"
   xmlns="http://www.w3.org/2000/svg"
   xmlns:sodipodi="http://sodipodi.sourceforge.net/DTD/sodipodi-0.dtd"
   xmlns:inkscape="http://www.inkscape.org/namespaces/inkscape"
   id="svg2"
   version="1.1"
   inkscape:version="0.91 r13725"
   xml:space="preserve"
   width="605.875"
   height="589"
   viewBox="0 0 605.875 589"
   sodipodi:docname="new-bdr-logo-antenna.svg"
   inkscape:export-filename="/home/wil/workspace/bostondroneracing/identity/logo/logo-antenna.png"
   inkscape:export-xdpi="300"
   inkscape:export-ydpi="300"><metadata
     id="metadata8"><rdf:RDF><cc:Work
         rdf:about=""><dc:format>image/svg+xml</dc:format><dc:type
           rdf:resource="http://purl.org/dc/dcmitype/StillImage" /><dc:title /></cc:Work></rdf:RDF></metadata><defs
     id="defs6" /><sodipodi:namedview
     pagecolor="#ffffff"
     bordercolor="#666666"
     borderopacity="1"
     objecttolerance="10"
     gridtolerance="10"
     guidetolerance="10"
     inkscape:pageopacity="0"
     inkscape:pageshadow="2"
     inkscape:window-width="1855"
     inkscape:window-height="1056"
     id="namedview4"
     showgrid="false"
     inkscape:zoom="1.1479719"
     inkscape:cx="211.34857"
     inkscape:cy="322.68582"
     inkscape:window-x="65"
     inkscape:window-y="24"
     inkscape:window-maximized="1"
     inkscape:current-layer="layer2"
     showguides="false" /><g
     id="g10"
     inkscape:groupmode="layer"
     inkscape:label="ink_ext_XXXXXX"
     transform="matrix(1.25,0,0,-1.25,0,589)"
     style="display:inline;opacity:0.879"><g
       id="g12"
       transform="scale(0.1,0.1)"
       style=""><path
         d="m 1018,3719 45,-336 1192,1329 -1237,-993"
         style="fill:#7a7e82;fill-opacity:1;fill-rule:nonzero;stroke:none"
         id="path14"
         inkscape:connector-curvature="0" /><path
         d="m 1277,3131 84,92 0,493 -298,-333 214,-252"
         style="fill:#505256;fill-opacity:1;fill-rule:nonzero;stroke:none"
         id="path16"
         inkscape:connector-curvature="0" /><path
         d="m 1612,3995 -83,-413 -168,-159 0,293 251,279"
         style="fill:#be1c2d;fill-opacity:1;fill-rule:nonzero;stroke:none"
         id="path18"
         inkscape:connector-curvature="0" /><path
         d="m 2255,4712 -619,-1138 -107,8 83,413 643,717"
         style="fill:#3b393d;fill-opacity:1;fill-rule:nonzero;stroke:none"
         id="path20"
         inkscape:connector-curvature="0" /><path
         d="m 1361,3223 138,160 137,191 -107,8 -168,-159 0,-200"
         style="fill:#100f0d;fill-opacity:1;fill-rule:nonzero;stroke:none"
         id="path22"
         inkscape:connector-curvature="0" /><path
         d="M 1277,3131 1203,2813.6667 1407,1810 l 122,-153 107,145 -107,909 245,283 -275,389 -222,-252"
         style="fill:#7a7e82;fill-opacity:1;fill-rule:nonzero;stroke:none"
         id="path24"
         inkscape:connector-curvature="0"
         sodipodi:nodetypes="ccccccccc" /><path
         d="m 1742,3769 421,226 252,-113 0,-113 -336,80 -443,-275 106,195"
         style="fill:#505256;fill-opacity:1;fill-rule:nonzero;stroke:none"
         id="path26"
         inkscape:connector-curvature="0" /><path
         d="m 1774,2994 252,0 519,137 -695,443 -351,-191 275,-389"
         style="fill:#3b393d;fill-opacity:1;fill-rule:nonzero;stroke:none"
         id="path28"
         inkscape:connector-curvature="0" /><path
         d="m 2255,3785 -181,-94 -224,-117 -351,-191 137,191 443,275 176,-64"
         style="fill:#8f9295;fill-opacity:1;fill-rule:nonzero;stroke:none"
         id="path30"
         inkscape:connector-curvature="0" /><path
         d="m 2377,3681 665,-779 -627,867 -160,16 -405,-211 527,107"
         style="fill:#f4f5f5;fill-opacity:1;fill-rule:nonzero;stroke:none"
         id="path32"
         inkscape:connector-curvature="0" /><path
         d="m 2545,3131 497,-229 -665,779 -527,-107 695,-443"
         style="fill:#666666;fill-opacity:1;fill-rule:nonzero;stroke:none"
         id="path34"
         inkscape:connector-curvature="0" /><path
         d="m 2026,2994 458,-474 710,-275 -649,886 -519,-137"
         style="fill:#505256;fill-opacity:1;fill-rule:nonzero;stroke:none"
         id="path36"
         inkscape:connector-curvature="0" /><path
         d="m 1529,2711 321,130 235,-119 399,-202 -458,474 -252,0 -245,-283"
         style="fill:#8f9295;fill-opacity:1;fill-rule:nonzero;stroke:none"
         id="path38"
         inkscape:connector-curvature="0" /><path
         d="m 2897,2054 297,191 -710,275 -399,202 812,-668"
         style="fill:#d3d4d3;fill-opacity:1;fill-rule:nonzero;stroke:none"
         id="path40"
         inkscape:connector-curvature="0" /><path
         d="m 2415,3882 451,-201 153,0 534,-924 138,237 -69,-436 -229,-313 31,-137 -153,-54 -77,191 -649,886 497,-229 -627,867 0,113"
         style="fill:#d3d4d3;fill-opacity:1;fill-rule:nonzero;stroke:none"
         id="path42"
         inkscape:connector-curvature="0" /><path
         d="m 2935,3709 0,255 756,435 -756,-690"
         style="fill:#7a7e82;fill-opacity:1;fill-rule:nonzero;stroke:none"
         id="path44"
         inkscape:connector-curvature="0" /><path
         d="m 3019,3681 263,229 -88,-336 -113,0 -62,107"
         style="fill:#be1c2d;fill-opacity:1;fill-rule:nonzero;stroke:none"
         id="path46"
         inkscape:connector-curvature="0" /><path
         d="m 3691,4399 -409,-817 409,-359 0,-229 -138,-237 -472,817 113,0 88,336 -263,-229 -84,28 756,690"
         style="fill:#666666;fill-opacity:1;fill-rule:nonzero;stroke:none"
         id="path48"
         inkscape:connector-curvature="0" /><path
         d="m 3691,3223 177.7702,-305.9713 -5.8947,-382 L 3546,2131 l -122,-23 -31,137 229,313 69,436 0,229"
         style="fill:#505256;fill-opacity:1;fill-rule:nonzero;stroke:none"
         id="path50"
         inkscape:connector-curvature="0"
         sodipodi:nodetypes="ccccccccc" /><path
         d="m 3271,2054 -661,-301 -355,-378 355,-993 584,38 497,412 191,-114 389,382 0,653 -725,378 -122,-23 -153,-54"
         style="fill:#e9eae9;fill-opacity:1;fill-rule:nonzero;stroke:none"
         id="path52"
         inkscape:connector-curvature="0" /><path
         d="m 2255,1375 -573,282 -195,-542 287,-604 252,176 475,0 -246,688"
         style="fill:#d3d4d3;fill-opacity:1;fill-rule:nonzero;stroke:none"
         id="path56"
         inkscape:connector-curvature="0" /><path
         d="M 1552.0453,1716.2593 1402.0617,1859.3827 1155,1329 l 619,-818 -287,604 195,542 -139.8313,39.5062"
         style="fill:#505256;fill-opacity:1;fill-rule:nonzero;stroke:none"
         id="path58"
         inkscape:connector-curvature="0"
         sodipodi:nodetypes="ccccccc" /><path
         d="m 1636,1802 619,-427 -573,282 -98.679,199.177 L 1636,1802"
         style="fill:#100f0d;fill-opacity:1;fill-rule:nonzero;stroke:none"
         id="path60"
         inkscape:connector-curvature="0"
         sodipodi:nodetypes="ccccc" /><path
         d="m 2196,2631 -319,-500 208,-329 812,252 -701,577"
         style="fill:#f4f5f5;fill-opacity:1;fill-rule:nonzero;stroke:none"
         id="path62"
         inkscape:connector-curvature="0" /><path
         d="m 3233,1703 397,107 359,0 183,-107 -374,-447 -565,447"
         style="fill:#3b393d;fill-opacity:1;fill-rule:nonzero;stroke:none"
         id="path64"
         inkscape:connector-curvature="0" /><path
         d="m 3313,518 279,0 290,200 -191,114 -378,-314"
         style="fill:#d3d4d3;fill-opacity:1;fill-rule:nonzero;stroke:none"
         id="path66"
         inkscape:connector-curvature="0" /><path
         d="m 1212,1438 -149,95 -206,-449 833,-763 1023,-207 0,274 -103,-6 -836,129 -619,818 57,109"
         style="fill:#be1c2d;fill-opacity:1;fill-rule:nonzero;stroke:none"
         id="path68"
         inkscape:connector-curvature="0" /><path
         d="m 2026,687 475,0 109,-305 -836,129 252,176"
         style="fill:#8f9295;fill-opacity:1;fill-rule:nonzero;stroke:none"
         id="path70"
         inkscape:connector-curvature="0" /><path
         d="m 1636,1802 241,329 319,500 -346,210 -321,-130 107,-909"
         style="fill:#100f0d;fill-opacity:1;fill-rule:nonzero;stroke:none"
         id="path72"
         inkscape:connector-curvature="0" /><path
         d="m 2255,1375 -170,427 -208,329 -241,-329 619,-427"
         style="fill:#505256;fill-opacity:1;fill-rule:nonzero;stroke:none"
         id="path74"
         inkscape:connector-curvature="0" /><path
         d="m 2897,2054 -287,-301 -355,-378 -170,427 812,252"
         style="fill:#3b393d;fill-opacity:1;fill-rule:nonzero;stroke:none"
         id="path76"
         inkscape:connector-curvature="0" /><path
         d="m 3194,2245 77,-191 -661,-301 287,301 297,191"
         style="fill:#100f0d;fill-opacity:1;fill-rule:nonzero;stroke:none"
         id="path78"
         inkscape:connector-curvature="0" /><path
         d="m 2713,298 260,-115 -260,0 0,115"
         style="fill:#8f9295;fill-opacity:1;fill-rule:nonzero;stroke:none"
         id="path80"
         inkscape:connector-curvature="0" /><path
         d="m 1985,261 270,-261 0,207 -270,54"
         style="fill:#8f9295;fill-opacity:1;fill-rule:nonzero;stroke:none"
         id="path82"
         inkscape:connector-curvature="0" /><path
         d="m 892,1161 -317,298 443,-26 -126,-272"
         style="fill:#8f9295;fill-opacity:1;fill-rule:nonzero;stroke:none"
         id="path84"
         inkscape:connector-curvature="0" /><path
         d="M 1063,895 857,824 1361,622 1063,895"
         style="fill:#8f9295;fill-opacity:1;fill-rule:nonzero;stroke:none"
         id="path86"
         inkscape:connector-curvature="0" /><path
         d="m 2415,3769 -160,16 -176,64 336,-80"
         style="fill:#bbbcbd;fill-opacity:1;fill-rule:nonzero;stroke:none"
         id="path88"
         inkscape:connector-curvature="0" /><path
         d="m 2935,3709 -520,173 451,-201 153,0 -84,28"
         style="fill:#e9eae9;fill-opacity:1;fill-rule:nonzero;stroke:none"
         id="path90"
         inkscape:connector-curvature="0" /></g><g
       inkscape:groupmode="layer"
       id="layer2"
       inkscape:label="goggles"
       style="display:inline"><path
         style="fill:#323232;fill-opacity:1;fill-rule:evenodd;stroke:none;stroke-width:0.80000001px;stroke-linecap:butt;stroke-linejoin:miter;stroke-opacity:1"
         d="m 118.3382,283.19901 16.67315,-9.19839 18.1103,-14.76406 -1.65009,-89.48626 -32.26232,46.72232 z"
         id="path4220"
         inkscape:connector-curvature="0"
         sodipodi:nodetypes="cccccc" /><path
         style="fill:#f2f2f2;fill-rule:evenodd;stroke:none;stroke-width:0.80000001px;stroke-linecap:butt;stroke-linejoin:miter;stroke-opacity:1"
         d="m 248.37029,257.18416 24.1928,-13.62238 91.04476,28.07074 -19.90962,8.69133 z"
         id="path4226"
         inkscape:connector-curvature="0"
         sodipodi:nodetypes="ccccc" /><path
         style="fill:#333333;fill-opacity:1;fill-rule:evenodd;stroke:none;stroke-width:0.80000001px;stroke-linecap:butt;stroke-linejoin:miter;stroke-opacity:1"
         d="m 118.3333,283.19782 63.69391,5.22286 -0.55433,-19.31268 z"
         id="path4230"
         inkscape:connector-curvature="0"
         sodipodi:nodetypes="cccc" /><path
         style="fill:#cccccc;fill-rule:evenodd;stroke:none;stroke-width:0.80000001px;stroke-linecap:butt;stroke-linejoin:miter;stroke-opacity:1"
         d="m 249.41308,256.61818 -12.74852,-11.12586 30.26247,1.62102 z"
         id="path4232"
         inkscape:connector-curvature="0"
         sodipodi:nodetypes="cccc" /><path
         style="fill:#666666;fill-rule:evenodd;stroke:none;stroke-width:0.80000001px;stroke-linecap:butt;stroke-linejoin:miter;stroke-opacity:1"
         d="m 236.73717,245.45328 -4.41183,-86.84172 36.74707,3.722 0.0507,85.254 z"
         id="path4234"
         inkscape:connector-curvature="0"
         sodipodi:nodetypes="ccccc" /><path
         style="fill:#505256;fill-opacity:1;fill-rule:evenodd;stroke:none;stroke-width:0.80000001px;stroke-linecap:butt;stroke-linejoin:miter;stroke-opacity:1"
         d="m 236.58147,245.10215 -83.43174,13.70093 28.40852,10.31254 68.14602,-12.50731 z"
         id="path4236"
         inkscape:connector-curvature="0"
         sodipodi:nodetypes="ccccc" /><path
         style="fill:#000000;fill-rule:evenodd;stroke:none;stroke-width:0.80000001px;stroke-linecap:butt;stroke-linejoin:miter;stroke-opacity:1"
         d="m 236.94568,159.03071 -11.40241,-21.66779 43.56605,24.99349 z"
         id="path4238"
         inkscape:connector-curvature="0"
         sodipodi:nodetypes="cccc" /><path
         style="fill:#333333;fill-rule:evenodd;stroke:none;stroke-width:0.80000001px;stroke-linecap:butt;stroke-linejoin:miter;stroke-opacity:1"
         d="m 153.11667,258.8134 83.69598,-13.67844 0.177,-86.22888 -85.55176,10.80789 z"
         id="path4252"
         inkscape:connector-curvature="0"
         sodipodi:nodetypes="ccccc" /><path
         style="fill:#1a1a1a;fill-rule:evenodd;stroke:none;stroke-width:0.80000001px;stroke-linecap:butt;stroke-linejoin:miter;stroke-opacity:1"
         d="M 225.62309,137.43426 151.0296,170.0018 236.9565,159.05078 Z"
         id="path4258"
         inkscape:connector-curvature="0"
         sodipodi:nodetypes="cccc" /><path
         style="fill:#000000;fill-rule:evenodd;stroke:none;stroke-width:0.80000001px;stroke-linecap:butt;stroke-linejoin:miter;stroke-opacity:1"
         d="m 363.78645,208.13207 8.67289,-4.52559 -2.04022,14.90048 z"
         id="path4260"
         inkscape:connector-curvature="0"
         sodipodi:nodetypes="cccc" /><path
         style="fill:#e6e6e6;fill-rule:evenodd;stroke:none;stroke-width:0.80000001px;stroke-linecap:butt;stroke-linejoin:miter;stroke-opacity:1"
         d="m 343.78506,280.29848 25.39955,-3.0973 -6.49017,-5.27968 z"
         id="path4262"
         inkscape:connector-curvature="0"
         sodipodi:nodetypes="cccc" /><path
         style="fill:#999999;fill-rule:evenodd;stroke:none;stroke-width:0.80000001px;stroke-linecap:butt;stroke-linejoin:miter;stroke-opacity:1"
         d="m 343.85567,280.27283 27.95048,29.16279 15.15133,-0.98995 -17.25225,-31.51818 z"
         id="path4264"
         inkscape:connector-curvature="0"
         sodipodi:nodetypes="ccccc" /><path
         style="fill:#999999;fill-rule:evenodd;stroke:none;stroke-width:0.80000001px;stroke-linecap:butt;stroke-linejoin:miter;stroke-opacity:1"
         d="m 362.68709,271.99425 5.64386,5.20605 1.89099,-59.1155 -6.37765,-9.9949 z"
         id="path4266"
         inkscape:connector-curvature="0"
         sodipodi:nodetypes="ccccc" /><path
         style="fill:#333333;fill-rule:evenodd;stroke:none;stroke-width:0.80000001px;stroke-linecap:butt;stroke-linejoin:miter;stroke-opacity:1"
         d="m 370.22607,218.51006 17.04014,37.17009 -14.87771,-51.9837 z"
         id="path4268"
         inkscape:connector-curvature="0"
         sodipodi:nodetypes="cccc" /><path
         style="fill:#666666;fill-rule:evenodd;stroke:none;stroke-width:0.80000001px;stroke-linecap:butt;stroke-linejoin:miter;stroke-opacity:1"
         d="m 368.28978,277.45878 1.90261,-59.55669 17.14162,37.75008 -0.36158,52.81283 z"
         id="path4270"
         inkscape:connector-curvature="0"
         sodipodi:nodetypes="ccccc" /><path
         style="fill:#333333;fill-rule:evenodd;stroke:none;stroke-width:0.80000001px;stroke-linecap:butt;stroke-linejoin:miter;stroke-opacity:1"
         d="m 181.43208,269.14725 0.52504,19.28029 67.80206,-8.01936 -0.19072,-23.84584 z"
         id="path4272"
         inkscape:connector-curvature="0"
         sodipodi:nodetypes="ccccc" /><path
         style="fill:#999999;fill-rule:evenodd;stroke:none;stroke-width:0.80000001px;stroke-linecap:butt;stroke-linejoin:miter;stroke-opacity:1"
         d="m 249.77079,280.31611 -0.22442,-23.7127 94.32129,23.6887 -0.18565,18.2557 z"
         id="path4274"
         inkscape:connector-curvature="0"
         sodipodi:nodetypes="ccccc" /><path
         style="fill:#1a1a1a;fill-opacity:1;fill-rule:evenodd;stroke:none;stroke-width:0.80000001px;stroke-linecap:butt;stroke-linejoin:miter;stroke-opacity:1"
         d="m 118.34126,283.19748 34.81732,-24.40921 28.19318,10.33264 z"
         id="path4278"
         inkscape:connector-curvature="0"
         sodipodi:nodetypes="cccc" /><path
         sodipodi:nodetypes="ccccc"
         inkscape:connector-curvature="0"
         id="path4280"
         d="m 343.67688,298.53111 0.18836,-18.27344 27.67504,28.38804 -0.26001,9.65198 z"
         style="fill:#808080;fill-rule:evenodd;stroke:none;stroke-width:0.80000001px;stroke-linecap:butt;stroke-linejoin:miter;stroke-opacity:1" /><path
         style="fill:#808080;fill-rule:evenodd;stroke:none;stroke-width:0.80000001px;stroke-linecap:butt;stroke-linejoin:miter;stroke-opacity:1"
         d="m 268.30581,247.55939 94.38571,24.42897 1.22852,-63.88473 -34.74063,-1.89662 -60.12969,-43.93556 z"
         id="path4282"
         inkscape:connector-curvature="0"
         sodipodi:nodetypes="cccccc" /><path
         style="display:inline;opacity:1;fill:#1a1a1a;fill-opacity:1;fill-rule:evenodd;stroke:none;stroke-width:0.80000001px;stroke-linecap:butt;stroke-linejoin:miter;stroke-opacity:1"
         d="m 371.36709,318.18631 0.2973,-8.9727 15.30141,-0.7649 z"
         id="path4278-3"
         inkscape:connector-curvature="0"
         sodipodi:nodetypes="cccc" /></g><path
       style="fill:#333333;fill-rule:evenodd;stroke:none;stroke-width:0.80000001px;stroke-linecap:butt;stroke-linejoin:miter;stroke-opacity:1"
       d="m 403.95586,336.27286 4.52981,-3.33465 11.70633,-1.6413 10.23332,2.04017 4.60273,2.6687 -2.54244,3.38854 -12.95602,1.27679 -11.70487,-1.34436 z"
       id="path4216"
       inkscape:connector-curvature="0"
       sodipodi:nodetypes="ccccccccc" /><path
       style="fill:#666666;fill-rule:evenodd;stroke:none;stroke-width:0.80000001px;stroke-linecap:butt;stroke-linejoin:miter;stroke-opacity:1"
       d="m 404.01692,336.18629 4.46833,-3.19921 0.0676,-12.82986 -5.12763,4.1321 z"
       id="path4218"
       inkscape:connector-curvature="0"
       sodipodi:nodetypes="ccccc" /><path
       style="fill:#e6e6e6;fill-rule:evenodd;stroke:none;stroke-width:0.80000001px;stroke-linecap:butt;stroke-linejoin:miter;stroke-opacity:1"
       d="m 408.46804,333.00593 0.16635,-13.05893 11.51005,-3.75263 -0.0142,15.14128 z"
       id="path4221"
       inkscape:connector-curvature="0"
       sodipodi:nodetypes="ccccc" /><path
       style="fill:#1a1a1a;fill-rule:evenodd;stroke:none;stroke-width:0.80000001px;stroke-linecap:butt;stroke-linejoin:miter;stroke-opacity:1"
       d="m 430.18106,333.25592 -0.45851,-13.77097 5.84629,2.41461 -0.53567,14.08748 z"
       id="path4223"
       inkscape:connector-curvature="0"
       sodipodi:nodetypes="ccccc" /><path
       style="fill:#333333;fill-rule:evenodd;stroke:none;stroke-width:0.80000001px;stroke-linecap:butt;stroke-linejoin:miter;stroke-opacity:1"
       d="m 425.16044,309.55196 -0.0624,-30.45519 -4.76839,-0.15152 -0.32086,29.54607 z"
       id="path4267"
       inkscape:connector-curvature="0"
       sodipodi:nodetypes="ccccc" /><path
       style="display:inline;opacity:0.87900002;fill:#666666;fill-rule:evenodd;stroke:none;stroke-width:0.80000001px;stroke-linecap:butt;stroke-linejoin:miter;stroke-opacity:1"
       d="m 415.00869,309.55196 0.0624,-30.45519 5.22996,-0.0856 -0.14071,29.48013 z"
       id="path4267-7"
       inkscape:connector-curvature="0"
       sodipodi:nodetypes="ccccc" /><path
       style="fill:#cccccc;fill-rule:evenodd;stroke:none;stroke-width:0.80000001px;stroke-linecap:butt;stroke-linejoin:miter;stroke-opacity:1"
       d="m 408.51652,320.25422 6.30556,-17.58899 5.70013,-0.59832 -0.50926,14.16875 z"
       id="path4225"
       inkscape:connector-curvature="0"
       sodipodi:nodetypes="ccccc" /><path
       style="fill:#000000;fill-rule:evenodd;stroke:none;stroke-width:0.80000001px;stroke-linecap:butt;stroke-linejoin:miter;stroke-opacity:1"
       d="m 435.56286,321.92665 -9.50702,-15.95327 3.72829,13.62596 z"
       id="path4227"
       inkscape:connector-curvature="0"
       sodipodi:nodetypes="cccc" /><path
       style="fill:#b3b3b3;fill-rule:evenodd;stroke:none;stroke-width:0.80000001px;stroke-linecap:butt;stroke-linejoin:miter;stroke-opacity:1"
       d="m 403.37235,324.30345 5.25457,-4.10744 4.3876,-12.2942 z"
       id="path4229"
       inkscape:connector-curvature="0"
       sodipodi:nodetypes="cccc" /><path
       style="fill:#c83737;fill-rule:evenodd;stroke:none;stroke-width:0.80000001px;stroke-linecap:butt;stroke-linejoin:miter;stroke-opacity:1"
       d="m 370.62442,271.9765 6.59968,0 0,-35.77724 -5.55763,0 z"
       id="path4231"
       inkscape:connector-curvature="0" /><path
       style="fill:#ff2a2a;fill-rule:evenodd;stroke:none;stroke-width:0.80000001px;stroke-linecap:butt;stroke-linejoin:miter;stroke-opacity:1"
       d="m 371.25871,272.20303 13.19937,22.23052 5.55763,0 -12.85202,-22.57787 z"
       id="path4233"
       inkscape:connector-curvature="0" /><path
       style="fill:#aa0000;fill-rule:evenodd;stroke:none;stroke-width:0.80000001px;stroke-linecap:butt;stroke-linejoin:miter;stroke-opacity:1"
       d="m 377.21573,271.82436 12.78473,22.62007 0,-36.61623 -12.64108,-21.77182 z"
       id="path4235"
       inkscape:connector-curvature="0" /><path
       style="display:inline;opacity:1;fill:#1a1a1a;fill-rule:evenodd;stroke:none;stroke-width:0.80000001px;stroke-linecap:butt;stroke-linejoin:miter;stroke-opacity:1"
       d="m 410.64496,256.86424 -30.45519,-0.0624 -0.0856,-5.22996 29.48012,0.14071 z"
       id="path4267-7-5-0"
       inkscape:connector-curvature="0"
       sodipodi:nodetypes="ccccc" /><path
       style="display:inline;opacity:0.87900002;fill:#b3b3b3;fill-rule:evenodd;stroke:none;stroke-width:0.80000001px;stroke-linecap:butt;stroke-linejoin:miter;stroke-opacity:1"
       d="m 430.28227,333.51148 -0.46051,-13.98197 -9.77574,-3.42297 0.1004,15.14128 z"
       id="path4221-3"
       inkscape:connector-curvature="0"
       sodipodi:nodetypes="ccccc" /><path
       style="display:inline;opacity:1;fill:#999999;fill-rule:evenodd;stroke:none;stroke-width:0.80000001px;stroke-linecap:butt;stroke-linejoin:miter;stroke-opacity:1"
       d="m 430.00249,319.63472 -4.85509,-16.92968 -5.01862,-0.59832 -0.23744,13.97096 z"
       id="path4225-6"
       inkscape:connector-curvature="0"
       sodipodi:nodetypes="ccccc" /><path
       style="display:inline;opacity:1;fill:#1a1a1a;fill-rule:evenodd;stroke:none;stroke-width:0.80000001px;stroke-linecap:butt;stroke-linejoin:miter;stroke-opacity:1"
       d="m 416.30974,274.24781 -30.45519,-0.0624 -0.0856,-5.22996 29.48012,0.14071 z"
       id="path4267-7-5"
       inkscape:connector-curvature="0"
       sodipodi:nodetypes="ccccc" /><path
       style="display:inline;opacity:1;fill:#1a1a1a;fill-rule:evenodd;stroke:none;stroke-width:0.80000001px;stroke-linecap:butt;stroke-linejoin:miter;stroke-opacity:1"
       d="m 416.30973,274.09866 -30.45519,0.0624 -0.0856,5.22996 29.48012,-0.14071 z"
       id="path4267-7-5-3"
       inkscape:connector-curvature="0"
       sodipodi:nodetypes="ccccc" /><flowRoot
       xml:space="preserve"
       id="flowRoot4324"
       style="font-style:normal;font-variant:normal;font-weight:normal;font-stretch:normal;font-size:40px;line-height:125%;font-family:Xolonium;-inkscape-font-specification:Xolonium;letter-spacing:0px;word-spacing:0px;fill:#ff0000;fill-opacity:1;stroke:none;stroke-width:1px;stroke-linecap:butt;stroke-linejoin:miter;stroke-opacity:1"
       transform="matrix(0.82945227,-0.14137092,0,-0.8,-6.3678096,482.87012)"><flowRegion
         id="flowRegion4326"><rect
           id="rect4328"
           width="174.83479"
           height="129.31178"
           x="195.28717"
           y="274.29736"
           style="font-style:normal;font-variant:normal;font-weight:normal;font-stretch:normal;font-size:40px;font-family:Xolonium;-inkscape-font-specification:Xolonium;fill:#ff0000" /></flowRegion><flowPara
         id="flowPara4330">BDR</flowPara></flowRoot><path
       style="fill:#666666;fill-rule:evenodd;stroke:none;stroke-width:0.80000001px;stroke-linecap:butt;stroke-linejoin:miter;stroke-opacity:1"
       d="m 388.9822,279.24353 5.08041,-2.77118 50.90581,18.30619 -5.20577,2.00236 z"
       id="path4379"
       inkscape:connector-curvature="0"
       sodipodi:nodetypes="ccccc" /><path
       style="display:inline;opacity:1;fill:#1a1a1a;fill-rule:evenodd;stroke:none;stroke-width:0.80000001px;stroke-linecap:butt;stroke-linejoin:miter;stroke-opacity:1"
       d="m 410.64495,256.71509 -30.45519,0.0624 -0.0856,5.22996 29.48012,-0.14071 z"
       id="path4267-7-5-3-1"
       inkscape:connector-curvature="0"
       sodipodi:nodetypes="ccccc" /><path
       style="fill:#808080;fill-rule:evenodd;stroke:none;stroke-width:0.80000001px;stroke-linecap:butt;stroke-linejoin:miter;stroke-opacity:1"
       d="m 388.96598,279.37801 5.92687,-2.71547 -1.07833,-65.45541 -4.48605,2.9907 z"
       id="path4381"
       inkscape:connector-curvature="0"
       sodipodi:nodetypes="ccccc" /><path
       style="fill:#c83737;fill-rule:evenodd;stroke:none;stroke-width:0.80000001px;stroke-linecap:butt;stroke-linejoin:miter;stroke-opacity:1"
       d="m 394.76269,276.79925 30.75548,-20.87419 19.51551,38.90752 z"
       id="path4407"
       inkscape:connector-curvature="0"
       sodipodi:nodetypes="cccc" /><path
       style="opacity:1;fill:#ff5555;fill-rule:evenodd;stroke:none;stroke-width:0.80000001px;stroke-linecap:butt;stroke-linejoin:miter;stroke-opacity:1"
       d="m 394.8862,276.79924 -1.35867,-65.46344 31.62008,44.9598 z"
       id="path4409"
       inkscape:connector-curvature="0"
       sodipodi:nodetypes="cccc" /><path
       style="fill:#ff0000;fill-rule:evenodd;stroke:none;stroke-width:0.80000001px;stroke-linecap:butt;stroke-linejoin:miter;stroke-opacity:1"
       d="m 393.77456,211.58283 31.37306,44.95981 20.00958,-12.10457 z"
       id="path4411"
       inkscape:connector-curvature="0"
       sodipodi:nodetypes="cccc" /><path
       style="fill:#d40000;fill-rule:evenodd;stroke:none;stroke-width:0.80000001px;stroke-linecap:butt;stroke-linejoin:miter;stroke-opacity:1"
       d="m 444.78665,294.58555 -19.51553,-38.04291 19.88609,-12.10456 z"
       id="path4413"
       inkscape:connector-curvature="0"
       sodipodi:nodetypes="cccc" /></g></svg>